<svg width="32" height="32" viewBox="0 0 32 32" fill="none" xmlns="http://www.w3.org/2000/svg">
<path d="M24 0H6C3.79063 0 2 1.79063 2 4V28C2 30.2094 3.79063 32 6 32H24C26.2094 32 28 30.2094 28 28V4C28 1.79063 26.2062 0 24 0ZM15 8C17.2094 8 19 9.79063 19 12C19 14.2094 17.2094 16 15 16C12.7912 16 11 14.2094 11 12C11 9.79063 12.7938 8 15 8ZM21 24H9C8.45 24 8 23.55 8 23C8 20.2375 10.2375 18 13 18H17C19.7613 18 22 20.2387 22 23C22 23.55 21.55 24 21 24ZM31 4H30V10H31C31.55 10 32 9.55 32 9V5C32 4.4475 31.55 4 31 4ZM31 12H30V18H31C31.55 18 32 17.55 32 17V13C32 12.45 31.55 12 31 12ZM31 20H30V26H31C31.5523 26 32 25.5523 32 25V21C32 20.45 31.55 20 31 20Z" fill="white"/>
</svg>
